<svg width="150" height="30" viewBox="0 0 150 30" fill="none" xmlns="http://www.w3.org/2000/svg">
<path d="M19.67 27L10.85 15.065H7.315L18.025 1.45H24.605L14.98 13.665L14.91 11.18L26.6 27H19.67ZM2.87 27V1.45H8.61V27H2.87ZM29.9657 27L38.4007 1.45H47.6757L56.4257 27H50.4757L43.4057 5.405L45.2257 6.14H40.7107L42.6007 5.405L35.7057 27H29.9657ZM36.3707 20.665L38.1207 15.905H48.1307L49.9157 20.665H36.3707ZM80.0587 27L71.2387 15.065H67.7037L78.4137 1.45H84.9937L75.3687 13.665L75.2987 11.18L86.9887 27H80.0587ZM63.2587 27V1.45H68.9987V27H63.2587ZM90.3544 27L98.7894 1.45H108.064L116.814 27H110.864L103.794 5.405L105.614 6.14H101.099L102.989 5.405L96.0944 27H90.3544ZM96.7594 20.665L98.5094 15.905H108.519L110.304 20.665H96.7594ZM134.804 27.665C132.494 27.665 130.475 27.2683 128.749 26.475C127.045 25.6583 125.634 24.5967 124.514 23.29C123.394 21.96 122.554 20.525 121.994 18.985C121.457 17.445 121.189 15.9633 121.189 14.54V13.77C121.189 12.1833 121.469 10.62 122.029 9.08C122.612 7.51667 123.475 6.105 124.619 4.845C125.762 3.585 127.185 2.58167 128.889 1.835C130.592 1.065 132.564 0.679999 134.804 0.679999C137.044 0.679999 139.015 1.065 140.719 1.835C142.422 2.58167 143.845 3.585 144.989 4.845C146.132 6.105 146.995 7.51667 147.579 9.08C148.162 10.62 148.454 12.1833 148.454 13.77V14.54C148.454 15.9633 148.174 17.445 147.614 18.985C147.054 20.525 146.214 21.96 145.094 23.29C143.974 24.5967 142.55 25.6583 140.824 26.475C139.12 27.2683 137.114 27.665 134.804 27.665ZM134.804 22.31C136.017 22.31 137.102 22.1 138.059 21.68C139.039 21.26 139.867 20.6767 140.544 19.93C141.244 19.1833 141.769 18.32 142.119 17.34C142.469 16.36 142.644 15.31 142.644 14.19C142.644 13 142.457 11.915 142.084 10.935C141.734 9.93167 141.209 9.06833 140.509 8.345C139.832 7.59833 139.015 7.02667 138.059 6.63C137.102 6.23333 136.017 6.035 134.804 6.035C133.59 6.035 132.505 6.23333 131.549 6.63C130.592 7.02667 129.764 7.59833 129.064 8.345C128.387 9.06833 127.874 9.93167 127.524 10.935C127.174 11.915 126.999 13 126.999 14.19C126.999 15.31 127.174 16.36 127.524 17.34C127.874 18.32 128.387 19.1833 129.064 19.93C129.764 20.6767 130.592 21.26 131.549 21.68C132.505 22.1 133.59 22.31 134.804 22.31Z" fill="white"/>
</svg>
