<svg width="16" height="16" viewBox="0 0 16 16" fill="none" xmlns="http://www.w3.org/2000/svg">
<g clip-path="url(#clip0_1003_4)">
<path d="M0 2C0 0.89543 0.89543 0 2 0H14C15.1046 0 16 0.89543 16 2V14C16 15.1046 15.1046 16 14 16H2C0.89543 16 0 15.1046 0 14V2Z" fill="white"/>
<path d="M10.8358 6.70369C10.8358 6.70369 10.0238 9.24769 9.96383 9.46369C9.93983 9.25169 9.34783 4.67969 9.34783 4.67969C7.96383 4.67969 7.22783 5.66369 6.83583 6.70369C6.83583 6.70369 5.84783 9.25569 5.76783 9.46769C5.76383 9.26769 5.61583 6.72769 5.61583 6.72769C5.53183 5.45169 4.36783 4.67969 3.42383 4.67969L4.55983 11.6037C6.00783 11.5997 6.78783 10.6197 7.19583 9.57569C7.19583 9.57569 8.06383 7.32369 8.09983 7.22369C8.10783 7.31969 8.72383 11.6037 8.72383 11.6037C10.1758 11.6037 10.9598 10.6877 11.3798 9.68369L13.4158 4.67969C11.9798 4.67969 11.2238 5.65969 10.8358 6.70369Z" fill="#4353FF"/>
</g>
<defs>
<clipPath id="clip0_1003_4">
<rect width="16" height="16" fill="white"/>
</clipPath>
</defs>
</svg>
